<svg height='300px' width='300px'  fill="#000000" xmlns="http://www.w3.org/2000/svg" xmlns:xlink="http://www.w3.org/1999/xlink" version="1.1" x="0px" y="0px" viewBox="7.5 7.5 50 50" enable-background="new 7.5 7.5 50 50" xml:space="preserve"><path d="M56.154,17.343c-0.364-1.537-1.335-2.556-2.734-2.867c-0.509-0.114-1.014-0.149-1.502-0.183  c-0.887-0.063-1.725-0.121-2.526-0.635c-0.596-0.381-1.405-0.141-2.112,0.162c-0.407,0.174-0.828,0.353-1.267,0.353  c-0.003,0-0.005,0-0.007,0c-0.258-0.008-0.456,0.145-0.516,0.377c-0.05,0.202-0.113,0.264-0.24,0.388  c-0.172,0.168-0.407,0.398-0.544,0.912c-0.074,0.278-0.167,0.555-0.259,0.831c-0.2,0.597-0.406,1.213-0.446,1.864  c-0.079,1.27-0.084,2.557-0.09,3.803c-0.003,0.733-0.006,1.467-0.023,2.2c-0.021,0.907-0.138,1.409-0.714,1.642  c-0.777,0.314-1.536,0.17-2.058-0.401c-0.737-0.806-1.318-1.628-1.727-2.444c-0.995-1.997-2.366-3.152-4.314-3.638  c-1.941-0.482-3.565-1.445-4.825-2.861c-0.583-0.656-1.274-1.203-1.932-1.708c-0.981-0.752-1.962-0.909-2.997-0.495  c-1.486,0.594-2.744,1.541-3.844,2.894c-0.464,0.57-1.042,1.051-1.653,1.56c-0.31,0.258-0.619,0.516-0.915,0.786  c-0.267,0.245-0.552,0.478-0.836,0.712c-0.722,0.593-1.469,1.207-1.965,2.008c-0.494,0.795-1.345,1.252-2.246,1.735  c-0.31,0.166-0.62,0.333-0.919,0.514c-2.661,0.483-3.083,2.698-3.457,4.655c-0.13,0.682-0.253,1.326-0.46,1.894  c-0.227,0.624-0.271,1.422-0.117,2.137c0.147,0.689,0.386,1.353,0.663,2.119c0.126,0.352,0.263,0.729,0.405,1.149  c0.07,0.208,0.261,0.337,0.49,0.34c0.22-0.007,0.41-0.158,0.467-0.371c0.083-0.311,0.17-0.594,0.251-0.861  c0.182-0.594,0.338-1.107,0.387-1.658c0.043-0.49,0-0.972-0.043-1.437c-0.034-0.374-0.065-0.727-0.054-1.073  c0.006-0.17,0.022-0.216,0.033-0.238c0.096-0.177,0.142-0.337,0.129-0.721c-0.024-0.704,0.144-1.517,0.497-2.118  c-0.097,0.92-0.193,1.87-0.169,2.824c0.03,1.132,0.199,2.262,0.363,3.355c0.048,0.322,0.097,0.645,0.142,0.966  c0.165,1.193,0.144,2.061-0.47,2.701c-1.25,1.31-1.054,2.791-0.897,3.98c0.106,0.804,0.263,1.608,0.415,2.387  c0.396,2.029,0.77,3.946,0.368,5.975c-0.029,0.146,0.009,0.299,0.104,0.414c0.095,0.115,0.237,0.183,0.386,0.183h3.606  c0.197,0,0.376-0.116,0.457-0.297c0.081-0.18,0.047-0.391-0.085-0.538c-1.866-2.072-2.797-4.763-2.554-7.382  c0.198-2.135,1.14-4.049,2.675-5.471c0.118,0.93-0.012,1.797-0.363,2.228c-0.883,1.085-0.538,1.984-0.071,2.887  c0.285,0.552,0.592,1.097,0.9,1.642c1.183,2.099,2.3,4.081,2.287,6.537c0,0.133,0.052,0.261,0.146,0.355s0.221,0.147,0.354,0.147  h3.788c0.172,0,0.332-0.089,0.424-0.234c0.091-0.146,0.101-0.329,0.026-0.483l-0.056-0.122c-0.041-0.092-0.082-0.188-0.164-0.276  c-0.094-0.105-0.204-0.197-0.319-0.288c-3.157-2.437-4.433-5.864-3.792-10.189c0.161-1.088,0.493-2.136,0.845-3.246  c0.191-0.604,0.383-1.208,0.545-1.816c0.175-0.657,0.312-1.326,0.441-1.96l0.051-0.245l9.863,3.034  c-0.021,0.072-0.043,0.148-0.068,0.224c-0.773,2.343-1.492,4.893-1.51,7.662c-0.011,1.673-0.048,3.345-0.085,5.027l-0.048,2.278  c-0.002,0.135,0.049,0.264,0.143,0.36c0.094,0.096,0.223,0.149,0.357,0.149h3.234c0.007,0,0.015,0,0.02,0c0.276,0,0.5-0.224,0.5-0.5  c0-0.229-0.152-0.421-0.362-0.48c-1.321-0.687-1.139-1.421-0.813-2.737c0.089-0.361,0.183-0.739,0.247-1.136  c0.178-1.099,0.138-2.335,0.1-3.53c-0.021-0.651-0.041-1.289-0.023-1.875c0.032-1.046,0.451-1.884,0.936-2.854  c0.039-0.079,0.079-0.16,0.12-0.24c0.063,0.332,0.129,0.665,0.195,0.997c0.243,1.232,0.496,2.507,0.631,3.76  c0.081,0.754,0.241,1.505,0.396,2.231c0.401,1.886,0.78,3.667-0.104,5.515c-0.074,0.155-0.063,0.337,0.028,0.482  s0.251,0.233,0.423,0.233h3.574c0.188,0,0.358-0.104,0.444-0.271s0.071-0.366-0.037-0.52c-0.293-0.412-0.361-0.86-0.439-1.379  c-0.068-0.444-0.145-0.947-0.381-1.463c-0.312-0.682-0.597-1.426-0.571-2.241c0.039-1.164-0.147-2.361-0.328-3.52  c-0.053-0.339-0.104-0.672-0.149-0.997c-0.23-1.666-0.152-3.323,0.263-5.543c0.136-0.727,0.352-0.896,0.894-1.009l1.354-0.277  c1.375-0.279,2.797-0.567,4.182-0.93c3.409-0.893,5.081-2.845,5.421-6.331c0.118-1.207,0.14-2.434,0.161-3.62  c0.014-0.758,0.027-1.517,0.065-2.275c0.032-0.679,0.172-0.929,0.252-1.018c0.905-1.001,1.547-1.081,2.725-0.399  c0.258,0.149,0.516,0.226,0.765,0.226c0.516,0,0.867-0.306,1.15-0.551c0.158-0.138,0.309-0.268,0.437-0.299  C56.035,18.746,56.257,17.775,56.154,17.343z M55.094,17.956c-0.291,0.106-0.513,0.299-0.713,0.472  c-0.337,0.294-0.463,0.387-0.758,0.216c-1.608-0.932-2.755-0.746-3.968,0.593c-0.306,0.338-0.472,0.875-0.508,1.64  c-0.039,0.768-0.053,1.537-0.067,2.306c-0.021,1.167-0.043,2.373-0.157,3.541c-0.296,3.046-1.695,4.679-4.678,5.46  c-1.358,0.355-2.767,0.641-4.128,0.917l-1.358,0.279c-0.987,0.205-1.472,0.728-1.672,1.804c-0.29,1.549-0.583,3.614-0.271,5.863  c0.045,0.33,0.098,0.67,0.151,1.015c0.174,1.111,0.353,2.262,0.316,3.333c-0.031,1.021,0.3,1.896,0.662,2.69  c0.178,0.388,0.238,0.78,0.301,1.196c0.051,0.335,0.103,0.676,0.217,1.019h-2.026c0.643-1.891,0.26-3.691-0.111-5.438  c-0.156-0.734-0.304-1.428-0.38-2.131c-0.14-1.297-0.396-2.593-0.645-3.847c-0.101-0.51-0.202-1.02-0.296-1.531  c-0.028-0.157-0.084-0.288-0.16-0.469c-0.042-0.1-0.096-0.224-0.159-0.391c-0.074-0.191-0.258-0.318-0.464-0.319  c-0.001,0-0.002,0-0.003,0c-0.204,0-0.388,0.124-0.464,0.313c-0.2,0.498-0.427,0.95-0.645,1.388c-0.515,1.03-1.001,2.004-1.041,3.27  c-0.018,0.605,0.002,1.264,0.024,1.937c0.037,1.148,0.074,2.335-0.088,3.339c-0.06,0.369-0.147,0.72-0.23,1.056  c-0.241,0.974-0.506,2.042,0.184,2.958h-1.281l0.037-1.767c0.038-1.687,0.075-3.364,0.086-5.043c0.018-2.63,0.712-5.09,1.46-7.356  c0.083-0.255,0.149-0.516,0.206-0.738c0.072-0.261-0.076-0.532-0.335-0.611l-10.847-3.336c-0.134-0.04-0.279-0.024-0.399,0.046  c-0.121,0.071-0.207,0.189-0.236,0.326l-0.165,0.791c-0.125,0.615-0.257,1.265-0.427,1.902c-0.159,0.594-0.346,1.183-0.532,1.771  c-0.349,1.1-0.709,2.235-0.881,3.402c-0.665,4.488,0.578,8.1,3.691,10.74h-2.121c-0.127-2.492-1.284-4.543-2.404-6.53  c-0.302-0.535-0.603-1.069-0.883-1.61c-0.445-0.861-0.509-1.222-0.042-1.796c0.762-0.934,0.747-2.641,0.393-3.918  c-0.044-0.16-0.166-0.287-0.323-0.34c-0.16-0.055-0.331-0.024-0.463,0.076c-2.13,1.628-3.44,4.008-3.69,6.7  c-0.237,2.555,0.531,5.165,2.124,7.31h-1.962c0.267-2.002-0.105-3.911-0.466-5.763c-0.149-0.764-0.303-1.554-0.405-2.326  c-0.175-1.326-0.226-2.263,0.629-3.158c0.94-0.982,0.91-2.277,0.737-3.529c-0.045-0.326-0.094-0.651-0.143-0.978  c-0.16-1.063-0.324-2.162-0.352-3.232c-0.024-0.912,0.075-1.851,0.17-2.759c0.043-0.415,0.087-0.828,0.119-1.236  c0.014-0.174-0.064-0.343-0.206-0.445c-0.142-0.102-0.326-0.123-0.487-0.056c-1.393,0.586-1.974,2.407-1.924,3.851  c0.005,0.16-0.005,0.208-0.009,0.21c-0.089,0.164-0.142,0.328-0.153,0.682c-0.014,0.407,0.022,0.809,0.058,1.196  c0.04,0.441,0.078,0.858,0.042,1.259c-0.024,0.273-0.086,0.554-0.169,0.854c-0.225-0.628-0.404-1.153-0.519-1.693  c-0.114-0.531-0.083-1.139,0.079-1.586c0.234-0.643,0.371-1.357,0.502-2.048c0.363-1.899,0.676-3.539,2.734-3.872  c0.065-0.011,0.127-0.034,0.183-0.068c0.308-0.19,0.629-0.363,0.95-0.535c0.978-0.524,1.988-1.066,2.624-2.09  c0.409-0.661,1.061-1.196,1.75-1.763c0.299-0.246,0.597-0.491,0.877-0.747c0.284-0.26,0.582-0.507,0.879-0.755  c0.622-0.517,1.264-1.052,1.789-1.697c1.004-1.235,2.097-2.06,3.439-2.596c0.715-0.289,1.308-0.183,2.017,0.36  c0.62,0.475,1.269,0.988,1.793,1.578c1.397,1.569,3.19,2.635,5.33,3.167c1.666,0.415,2.795,1.375,3.662,3.114  c0.45,0.899,1.083,1.798,1.883,2.673c0.805,0.878,2,1.124,3.17,0.654c1.293-0.522,1.323-1.839,1.34-2.546  c0.018-0.74,0.021-1.48,0.023-2.22c0.005-1.231,0.011-2.504,0.088-3.745c0.032-0.52,0.209-1.049,0.396-1.609  c0.099-0.296,0.197-0.592,0.277-0.891c0.065-0.249,0.146-0.326,0.276-0.455c0.115-0.113,0.261-0.255,0.379-0.493  c0.482-0.053,0.936-0.247,1.343-0.42c0.491-0.209,0.933-0.397,1.182-0.24c1.017,0.652,2.022,0.722,2.996,0.791  c0.472,0.033,0.918,0.064,1.354,0.162c1.288,0.287,1.787,1.312,1.979,2.117C55.192,17.646,55.145,17.846,55.094,17.956z"></path></svg>